<svg version="1.2" xmlns="http://www.w3.org/2000/svg" viewBox="0 0 3050 832" width="3050" height="832">
                        <title>default-dark-svg</title>
                        <style>
                            .s0 { fill: #6466f1 } 
                            .s1 { fill: #f7f0f0 } 
                        </style>
                        <g id="Layer">
                            <g id="Layer">
                                <g id="Layer">
                                    <path id="Layer" class="s0" d="m383.6 229l23.6-133.7c18.8 3.3 37.1 8.2 54.8 14.6l-46.5 127.5c-10.2-3.7-20.9-6.5-31.9-8.4z"/>
                                    <path id="Layer" class="s0" d="m676 415.7c0 179.6-145.7 325.3-325.3 325.3-179.7 0-325.3-145.7-325.3-325.3 0-179.7 145.6-325.3 325.3-325.3v135.7c-104.8 0-189.6 84.8-189.6 189.6 0 104.7 84.8 189.6 189.6 189.6 104.7 0 189.6-84.9 189.6-189.6z"/>
                                    <path id="Layer" class="s0" d="m445.5 251.5l67.8-117.6c16.5 9.5 32 20.4 46.5 32.6l-87.3 103.9c-8.4-7-17.5-13.4-27-18.9z"/>
                                    <path id="Layer" class="s0" d="m528.9 350.8l127.5-46.4c6.4 17.6 11.4 35.9 14.7 54.8l-133.7 23.5c-2-11-4.8-21.6-8.5-31.9z"/>
                                    <path id="Layer" class="s0" d="m495.9 293.8l103.9-87.2c12.2 14.4 23.1 30 32.6 46.4l-117.5 67.9c-5.6-9.6-11.9-18.7-19-27.1z"/>
                                </g>
                            </g>
                            <g id="Layer">
                                <path id="Layer" fill-rule="evenodd" class="s1" d="m1034.9 599.3c-33.4 0-63.9-7.9-91.1-23.7-27.1-16.4-48.6-38.5-63.9-66.2-15.3-27.7-23.2-58.9-23.2-93.4 0-33.4 7.9-64.5 23.8-92.2 15.8-27.2 37.9-49.3 65-65.1 27.8-15.8 58.9-23.8 91.7-23.8 24.9 0 49.2 5.7 73 15.9 23.8 10.7 44.1 24.9 61.1 43 2.3 2.8 2.3 6.8 0 9.6l-53.8 44.1c-1.7 1.7-3.3 2.9-5.6 2.9-2.3 0-4.5-1.2-5.7-2.9-28.8-35-75.2-42.4-114.3-18.1-33.9 21-46.4 59.5-44.7 97.9 1.7 39.1 30 72.5 67.4 83.8 33.9 10.2 67.3 2.2 91.6-23.8 1.7-1.1 3.4-2.3 5.7-1.7 2.3 0 3.9 0.6 5.1 2.3l54.9 38.5c2.2 2.8 2.2 6.7 0 9.6-18.1 19.2-39.6 35.1-63.4 46.4-24.3 11.3-49.2 16.9-73.6 16.9zm213 0c-3.9 0-7.3-3.3-7.3-7.3v-339c0-3.9 3.4-7.3 7.3-7.3h73.6c4 0 7.3 3.4 7.3 7.3v339c0 4-3.3 7.3-7.3 7.3zm155.3 0c-4 0-7.4-3.3-7.4-7.3v-339c0-3.9 3.4-7.3 7.4-7.3h73.5c4 0 7.4 3.4 7.4 7.3v264.9h127.3c4 0 7.4 3.4 7.4 7.3v66.8c0 4-3.4 7.3-7.4 7.3zm290 0c-4 0-7.4-3.3-7.4-7.3v-339c0-3.9 3.4-7.3 7.4-7.3h73.5c4 0 7.4 3.4 7.4 7.3v339c0 4-3.4 7.3-7.4 7.3zm299 3.4c-27.1 0-54.3-5-80.3-15.2-26-9.7-49.2-23.8-68.5-40.8-2.2-2.2-2.8-5.6-1.7-8.5l19.8-67.3c1.2-2.3 2.9-4 5.1-4 2.3-0.5 4.5 0 6.2 1.7 30 28.3 64 53.8 106.4 56.1 11.3 0.5 23.8 1.1 34.5-2.3 33.4-10.8 19.3-44.7-5.6-54.9q-12.7-5.1-35.7-11.9c-22.6-6.2-41.3-13-55.4-19.8-15.3-6.8-28.3-17.5-39.6-31.7-10.8-14.7-16.4-33.9-16.4-57.1q0-33.1 16.9-57.7c11.4-16.4 27.2-29.5 47-38 19.8-8.4 43-13 69-13 23.2 0 45.9 3.4 68.5 10.8 22.1 6.8 41.9 16.4 59.4 27.7 2.9 2.3 4 5.7 2.3 9.1l-18.7 63.3c-0.6 2.3-2.3 3.4-4.5 4-1.7 0.6-4 0.6-5.7-0.6-25.4-15.8-50.9-35-80.9-39-19.8-2.8-49.8-1.7-56.6 22.1-8.5 30.5 36.2 38.4 56.6 44.7q34 10.1 56 20.3c15.3 7.4 28.9 18.7 39.6 32.9 11.4 14.7 17 34.5 17 58.2 0 23.2-6.2 43-18.1 60-11.3 17-27.7 29.4-48.1 38.5-20.4 7.9-43 12.4-68.5 12.4zm293.4-3.4c-4 0-6.8-3.3-6.8-7.3v-267.1h-77.5c-4 0-7.4-2.8-7.4-6.8v-65.1c0-3.9 3.4-7.3 7.4-7.3h242.7c4.6 0 7.4 3.4 7.4 7.3v65.1c0 4-2.8 6.8-7.4 6.8h-77.5v267.1c0 4-3.4 7.3-7.3 7.3zm240.1 0c-3.9 0-7.3-3.3-7.3-7.3v-339c0-3.9 3.4-7.3 7.3-7.3h73.6c3.9 0 7.3 3.4 7.3 7.3v339c0 4-3.4 7.3-7.3 7.3zm155.3 0c-2.3 0-4.6-1.1-5.7-3.3-1.7-1.7-1.7-4.6-1.1-6.8l131.8-339c1.1-2.8 4-4.5 6.8-4.5h75.8c2.9 0 5.7 1.7 6.8 4.5l129.6 339c0.6 2.2 0.6 4.5-1.1 6.8-1.2 2.2-3.4 3.3-5.7 3.3h-78.6c-2.9 0-5.7-1.6-6.8-4.5l-21-52-127.3 0.5-20.9 51.5c-1.2 2.9-4 4.5-6.8 4.5zm126.7-127.3h81.5l-40.7-119.9z"/>
                            </g>
                        </g>
                    </svg>